<svg width="714" height="129" viewBox="0 0 714 129" fill="none" xmlns="http://www.w3.org/2000/svg">
<path d="M18.7229 106.957V91.981H43.2989C48.0775 91.981 52.0455 90.957 55.2029 88.909C58.3602 86.7757 60.7495 83.7037 62.3709 79.693C63.9922 75.6824 64.8029 70.7757 64.8029 64.973C64.8029 60.1944 64.2909 56.0984 63.2669 52.685C62.2429 49.1864 60.7069 46.3277 58.6589 44.109C56.6962 41.8904 54.1789 40.2264 51.1069 39.117C48.1202 38.0077 44.5789 37.453 40.4829 37.453H18.7229V22.477H39.8429C50.0829 22.477 58.4455 24.141 64.9309 27.469C71.4162 30.797 76.1949 35.5757 79.2669 41.805C82.3389 47.949 83.8749 55.3304 83.8749 63.949C83.8749 70.4344 83.1069 76.0664 81.5709 80.845C80.0349 85.6237 77.9442 89.677 75.2989 93.005C72.7389 96.333 69.7522 99.021 66.3389 101.069C62.9255 103.117 59.2989 104.61 55.4589 105.549C51.6189 106.488 47.7362 106.957 43.8109 106.957H18.7229ZM9.89088 106.957V22.477H28.3229V106.957H9.89088Z" fill="#F8F9FA"/>
<path d="M95.8909 106.957V22.477H114.451V106.957H95.8909ZM108.691 106.957V91.981H161.043V106.957H108.691ZM108.691 71.117V57.421H154.643V71.117H108.691ZM108.691 37.325V22.477H160.787V37.325H108.691Z" fill="#F8F9FA"/>
<path d="M192.755 106.957L164.851 22.477H184.947L204.915 91.341H206.579L226.675 22.477H246.515L218.483 106.957H192.755Z" fill="#F8F9FA"/>
<path d="M254.891 106.957V22.477H273.451V106.957H254.891ZM267.691 106.957V91.981H320.043V106.957H267.691ZM267.691 71.117V57.421H313.643V71.117H267.691ZM267.691 37.325V22.477H319.787V37.325H267.691Z" fill="#F8F9FA"/>
<path d="M330.891 106.957V22.477H349.323V106.957H330.891ZM334.731 106.957V91.469H385.035V106.957H334.731Z" fill="#F8F9FA"/>
<path d="M428.499 108.749C422.355 108.749 416.851 107.81 411.987 105.933C407.123 103.97 402.942 101.154 399.443 97.485C396.03 93.7304 393.384 89.165 391.507 83.789C389.715 78.3277 388.819 72.0984 388.819 65.101C388.819 55.117 390.568 46.8824 394.067 40.397C397.566 33.8264 402.344 28.9197 408.403 25.677C414.547 22.349 421.459 20.685 429.139 20.685C435.112 20.685 440.531 21.6664 445.395 23.629C450.259 25.5064 454.398 28.3224 457.811 32.077C461.31 35.7464 463.998 40.3544 465.875 45.901C467.752 51.3624 468.691 57.6344 468.691 64.717C468.691 71.9704 467.752 78.3277 465.875 83.789C463.998 89.2504 461.267 93.8584 457.683 97.613C454.184 101.282 449.96 104.056 445.011 105.933C440.062 107.81 434.558 108.749 428.499 108.749ZM429.011 94.029C433.534 94.029 437.331 92.9197 440.403 90.701C443.475 88.4824 445.822 85.2824 447.443 81.101C449.064 76.9197 449.875 71.7997 449.875 65.741C449.875 59.4264 449.022 54.0504 447.315 49.613C445.694 45.1757 443.304 41.805 440.147 39.501C436.99 37.1117 433.15 35.917 428.627 35.917C424.19 35.917 420.392 37.069 417.235 39.373C414.163 41.5917 411.774 44.8344 410.067 49.101C408.446 53.3677 407.635 58.6584 407.635 64.973C407.635 69.581 408.104 73.7197 409.043 77.389C410.067 80.973 411.475 84.0024 413.267 86.477C415.059 88.9517 417.278 90.829 419.923 92.109C422.568 93.389 425.598 94.029 429.011 94.029Z" fill="#F8F9FA"/>
<path d="M493.819 83.149V68.685H513.147C519.291 68.685 523.899 67.4477 526.971 64.973C530.043 62.413 531.579 58.2317 531.579 52.429C531.579 47.309 530.128 43.4264 527.227 40.781C524.411 38.0504 520.016 36.685 514.043 36.685H493.819V22.477H514.555C520.016 22.477 524.923 23.117 529.275 24.397C533.712 25.677 537.467 27.597 540.539 30.157C543.696 32.6317 546.086 35.789 547.707 39.629C549.328 43.3837 550.139 47.821 550.139 52.941C550.139 59.5117 548.646 65.0584 545.659 69.581C542.672 74.0184 538.235 77.389 532.347 79.693C526.544 81.997 519.291 83.149 510.587 83.149H493.819ZM480.891 106.957V22.477H499.323V106.957H480.891Z" fill="#F8F9FA"/>
<path d="M559.891 106.957V22.477H578.451V106.957H559.891ZM572.691 106.957V91.981H625.043V106.957H572.691ZM572.691 71.117V57.421H618.643V71.117H572.691ZM572.691 37.325V22.477H624.787V37.325H572.691Z" fill="#F8F9FA"/>
<path d="M635.891 106.957V22.477H670.195C674.803 22.477 678.984 22.861 682.739 23.629C686.494 24.3117 689.822 25.3357 692.723 26.701C695.624 28.0664 698.056 29.773 700.019 31.821C702.067 33.7837 703.603 36.0877 704.627 38.733C705.651 41.293 706.163 44.1517 706.163 47.309C706.163 50.2957 705.694 53.0264 704.755 55.501C703.816 57.8904 702.408 59.981 700.531 61.773C698.654 63.565 696.307 65.0584 693.491 66.253C690.675 67.3624 687.39 68.1304 683.635 68.557V70.477C687.987 70.9037 691.443 71.9277 694.003 73.549C696.648 75.085 698.696 77.1757 700.147 79.821C701.683 82.4664 703.006 85.7517 704.115 89.677L709.235 106.957H688.883L684.915 90.957C684.147 87.5437 683.038 84.8984 681.587 83.021C680.136 81.0584 678.302 79.693 676.083 78.925C673.864 78.0717 671.176 77.645 668.019 77.645H654.323V106.957H635.891ZM654.323 63.821H668.915C674.718 63.821 679.198 62.7117 682.355 60.493C685.512 58.2744 687.091 54.8184 687.091 50.125C687.091 45.517 685.598 42.1464 682.611 40.013C679.71 37.7944 675.315 36.685 669.427 36.685H654.323V63.821Z" fill="#F8F9FA"/>
</svg>
