<svg width="552" height="129" viewBox="0 0 552 129" fill="none" xmlns="http://www.w3.org/2000/svg">
<path d="M9.344 106.957V22.477H27.776V106.957H9.344ZM18.176 75.341V60.237H67.456V75.341H18.176ZM18.176 38.221V22.477H72.192V38.221H18.176Z" fill="#F8F9FA"/>
<path d="M80.448 106.957V74.445V39.757H95.68L95.808 62.669H98.24C98.9227 56.9517 100.075 52.301 101.696 48.717C103.403 45.133 105.749 42.4877 108.736 40.781C111.723 39.0744 115.435 38.221 119.872 38.221C120.64 38.221 121.451 38.2637 122.304 38.349C123.243 38.349 124.309 38.477 125.504 38.733L124.736 58.317C123.456 57.7197 122.048 57.293 120.512 57.037C118.976 56.781 117.611 56.653 116.416 56.653C113.088 56.653 110.229 57.421 107.84 58.957C105.451 60.493 103.488 62.7117 101.952 65.613C100.501 68.429 99.52 71.885 99.008 75.981V106.957H80.448Z" fill="#F8F9FA"/>
<path d="M162.912 108.749C156.171 108.749 150.24 107.426 145.12 104.781C140 102.05 135.989 98.0824 133.088 92.877C130.187 87.5864 128.736 81.0157 128.736 73.165C128.736 65.3144 130.187 58.7864 133.088 53.581C136.075 48.3757 140.128 44.493 145.248 41.933C150.453 39.2877 156.341 37.965 162.912 37.965C169.653 37.965 175.584 39.2877 180.704 41.933C185.909 44.5784 189.963 48.5464 192.864 53.837C195.851 59.0424 197.344 65.5704 197.344 73.421C197.344 81.357 195.808 87.9704 192.736 93.261C189.749 98.4664 185.653 102.349 180.448 104.909C175.328 107.469 169.483 108.749 162.912 108.749ZM163.552 95.053C166.88 95.053 169.653 94.285 171.872 92.749C174.176 91.213 175.883 88.909 176.992 85.837C178.187 82.6797 178.784 78.8824 178.784 74.445C178.784 69.7517 178.144 65.7837 176.864 62.541C175.669 59.213 173.877 56.6957 171.488 54.989C169.099 53.197 166.069 52.301 162.4 52.301C159.243 52.301 156.512 53.069 154.208 54.605C151.904 56.0557 150.155 58.3597 148.96 61.517C147.765 64.589 147.168 68.3864 147.168 72.909C147.168 80.1624 148.619 85.6664 151.52 89.421C154.421 93.1757 158.432 95.053 163.552 95.053Z" fill="#F8F9FA"/>
<path d="M206.448 106.957V66.253V39.757H221.552L221.424 59.853H223.984C225.093 54.989 226.672 50.9357 228.72 47.693C230.768 44.4504 233.328 42.0184 236.4 40.397C239.557 38.7757 243.269 37.965 247.536 37.965C255.301 37.965 261.189 40.6957 265.2 46.157C269.296 51.6184 271.344 60.1944 271.344 71.885V106.957H252.784V73.933C252.784 66.765 251.717 61.5597 249.584 58.317C247.536 54.989 244.507 53.325 240.496 53.325C237.083 53.325 234.224 54.3917 231.92 56.525C229.616 58.6584 227.867 61.4744 226.672 64.973C225.563 68.3864 224.965 72.2264 224.88 76.493V106.957H206.448Z" fill="#F8F9FA"/>
<path d="M308.408 108.493C300.899 108.493 295.352 106.53 291.768 102.605C288.269 98.5944 286.52 92.237 286.52 83.533V54.221H276.792L277.048 39.757H283.832C286.477 39.757 288.44 39.373 289.72 38.605C291 37.837 291.768 36.429 292.024 34.381L293.688 24.781H304.184V39.757H321.208V54.733H304.184V82.765C304.184 85.837 304.909 88.0557 306.36 89.421C307.811 90.7864 310.029 91.469 313.016 91.469C314.637 91.469 316.173 91.2984 317.624 90.957C319.16 90.6157 320.483 90.061 321.592 89.293V106.445C318.947 107.298 316.515 107.853 314.296 108.109C312.077 108.365 310.115 108.493 308.408 108.493Z" fill="#F8F9FA"/>
<path d="M361.68 108.749C356.133 108.749 351.184 107.981 346.832 106.445C342.565 104.909 338.939 102.69 335.952 99.789C332.965 96.8877 330.661 93.3037 329.04 89.037C327.504 84.7704 326.736 79.949 326.736 74.573C326.736 69.2824 327.461 64.4184 328.912 59.981C330.448 55.4584 332.667 51.5757 335.568 48.333C338.469 45.005 342.011 42.445 346.192 40.653C350.373 38.861 355.109 37.965 360.4 37.965C365.52 37.965 370.085 38.8184 374.096 40.525C378.107 42.1464 381.435 44.621 384.08 47.949C386.811 51.277 388.773 55.373 389.968 60.237C391.248 65.0157 391.717 70.5197 391.376 76.749L338.64 77.261V67.149L380.752 66.765L374.224 71.885C374.821 67.3624 374.523 63.6504 373.328 60.749C372.133 57.8477 370.384 55.7144 368.08 54.349C365.861 52.9837 363.387 52.301 360.656 52.301C357.413 52.301 354.555 53.1544 352.08 54.861C349.605 56.5677 347.685 59.085 346.32 62.413C344.955 65.6557 344.272 69.581 344.272 74.189C344.272 81.4424 345.851 86.7757 349.008 90.189C352.251 93.6024 356.475 95.309 361.68 95.309C364.069 95.309 366.075 95.0104 367.696 94.413C369.403 93.7304 370.768 92.877 371.792 91.853C372.901 90.829 373.755 89.677 374.352 88.397C375.035 87.117 375.589 85.837 376.016 84.557L392.016 88.013C391.248 91.1704 390.096 94.029 388.56 96.589C387.109 99.0637 385.147 101.24 382.672 103.117C380.197 104.909 377.211 106.274 373.712 107.213C370.299 108.237 366.288 108.749 361.68 108.749Z" fill="#F8F9FA"/>
<path d="M401.448 106.957V66.253V39.757H416.552L416.424 59.853H418.984C420.093 54.989 421.672 50.9357 423.72 47.693C425.768 44.4504 428.328 42.0184 431.4 40.397C434.557 38.7757 438.269 37.965 442.536 37.965C450.301 37.965 456.189 40.6957 460.2 46.157C464.296 51.6184 466.344 60.1944 466.344 71.885V106.957H447.784V73.933C447.784 66.765 446.717 61.5597 444.584 58.317C442.536 54.989 439.507 53.325 435.496 53.325C432.083 53.325 429.224 54.3917 426.92 56.525C424.616 58.6584 422.867 61.4744 421.672 64.973C420.563 68.3864 419.965 72.2264 419.88 76.493V106.957H401.448Z" fill="#F8F9FA"/>
<path d="M502.896 108.749C497.264 108.749 492.315 107.298 488.048 104.397C483.867 101.496 480.624 97.3997 478.32 92.109C476.016 86.8184 474.864 80.5464 474.864 73.293C474.864 66.4664 475.888 60.4077 477.936 55.117C479.984 49.8264 483.013 45.6877 487.024 42.701C491.035 39.7144 496.027 38.221 502 38.221C506.352 38.221 510.021 39.0317 513.008 40.653C515.995 42.2744 518.427 44.6637 520.304 47.821C522.267 50.893 523.803 54.605 524.912 58.957H527.856C527.259 56.2264 526.704 53.581 526.192 51.021C525.765 48.3757 525.424 45.8584 525.168 43.469C524.912 41.0797 524.784 38.989 524.784 37.197V15.437H543.216V73.933V106.957H527.856V87.501H525.296C524.357 92.2797 522.907 96.2477 520.944 99.405C518.981 102.562 516.464 104.909 513.392 106.445C510.405 107.981 506.907 108.749 502.896 108.749ZM509.04 93.645C511.856 93.645 514.245 93.0477 516.208 91.853C518.171 90.6584 519.792 89.1224 521.072 87.245C522.352 85.2824 523.291 83.1917 523.888 80.973C524.485 78.669 524.784 76.5357 524.784 74.573V72.141C524.784 70.5197 524.528 68.8557 524.016 67.149C523.589 65.357 522.949 63.6077 522.096 61.901C521.243 60.1944 520.176 58.701 518.896 57.421C517.616 56.0557 516.123 54.989 514.416 54.221C512.709 53.453 510.832 53.069 508.784 53.069C505.712 53.069 503.109 53.9224 500.976 55.629C498.843 57.3357 497.179 59.725 495.984 62.797C494.789 65.7837 494.192 69.2824 494.192 73.293C494.192 77.389 494.789 80.973 495.984 84.045C497.264 87.117 499.013 89.5064 501.232 91.213C503.451 92.8344 506.053 93.645 509.04 93.645Z" fill="#F8F9FA"/>
</svg>
