<svg width="47" height="15" viewBox="0 0 47 15" fill="none" xmlns="http://www.w3.org/2000/svg">
<g style="mix-blend-mode:difference">
<path d="M5.63056 14.252C4.85056 14.252 4.14856 14.174 3.52456 14.018C2.91256 13.874 2.38456 13.652 1.94056 13.352C1.50856 13.04 1.16656 12.656 0.914562 12.2C0.674563 11.732 0.536563 11.198 0.500563 10.598L2.76856 9.86C2.79256 10.4 2.92456 10.85 3.16456 11.21C3.41656 11.57 3.77056 11.834 4.22656 12.002C4.68256 12.17 5.19256 12.254 5.75656 12.254C6.29656 12.254 6.75256 12.188 7.12456 12.056C7.49656 11.924 7.77856 11.75 7.97056 11.534C8.16256 11.306 8.25856 11.06 8.25856 10.796C8.25856 10.484 8.13856 10.232 7.89856 10.04C7.65856 9.848 7.32856 9.686 6.90856 9.554C6.50056 9.422 6.03256 9.296 5.50456 9.176C4.91656 9.044 4.33456 8.894 3.75856 8.726C3.19456 8.558 2.67856 8.342 2.21056 8.078C1.75456 7.814 1.38856 7.472 1.11256 7.052C0.848563 6.632 0.716563 6.104 0.716563 5.468C0.716563 4.736 0.896563 4.106 1.25656 3.578C1.62856 3.038 2.16856 2.618 2.87656 2.318C3.58456 2.018 4.43656 1.868 5.43256 1.868C6.44056 1.868 7.29856 2.018 8.00656 2.318C8.72656 2.606 9.28456 3.02 9.68056 3.56C10.0766 4.088 10.2926 4.718 10.3286 5.45L7.98856 6.098C7.98856 5.726 7.92856 5.402 7.80856 5.126C7.68856 4.85 7.52056 4.622 7.30456 4.442C7.08856 4.25 6.81856 4.106 6.49456 4.01C6.18256 3.914 5.82256 3.866 5.41456 3.866C4.94656 3.866 4.53856 3.926 4.19056 4.046C3.85456 4.166 3.59656 4.328 3.41656 4.532C3.24856 4.736 3.16456 4.976 3.16456 5.252C3.16456 5.576 3.29656 5.846 3.56056 6.062C3.83656 6.266 4.19656 6.434 4.64056 6.566C5.09656 6.698 5.59456 6.824 6.13456 6.944C6.65056 7.052 7.17256 7.19 7.70056 7.358C8.24056 7.514 8.73856 7.724 9.19456 7.988C9.66256 8.24 10.0346 8.588 10.3106 9.032C10.5986 9.464 10.7426 10.01 10.7426 10.67C10.7426 11.39 10.5506 12.02 10.1666 12.56C9.78256 13.1 9.20656 13.52 8.43856 13.82C7.68256 14.108 6.74656 14.252 5.63056 14.252ZM12.6567 14V1.13H15.2128V8.276C15.5848 8.024 15.9388 7.754 16.2748 7.466C16.6228 7.166 16.9348 6.854 17.2108 6.53C17.4988 6.206 17.7508 5.876 17.9668 5.54C18.1948 5.204 18.3868 4.874 18.5428 4.55H21.5128C21.3328 5.006 21.0928 5.468 20.7928 5.936C20.5048 6.392 20.1568 6.818 19.7488 7.214C19.3528 7.598 18.8908 7.928 18.3628 8.204C17.8348 8.48 17.2528 8.666 16.6168 8.762V9.068C17.4208 8.924 18.0868 8.936 18.6148 9.104C19.1428 9.272 19.5748 9.542 19.9108 9.914C20.2588 10.274 20.5348 10.694 20.7388 11.174C20.9428 11.642 21.1288 12.116 21.2968 12.596L21.7108 14H18.8848L18.6508 13.118C18.4828 12.53 18.2968 12.014 18.0928 11.57C17.8888 11.126 17.6188 10.784 17.2828 10.544C16.9588 10.292 16.5088 10.166 15.9328 10.166H15.2128V14H12.6567ZM23.2915 14V4.55H25.8835V14H23.2915ZM24.6055 3.128C24.1015 3.128 23.7115 3.026 23.4355 2.822C23.1715 2.606 23.0395 2.294 23.0395 1.886C23.0395 1.466 23.1715 1.148 23.4355 0.932C23.7115 0.716 24.1015 0.608 24.6055 0.608C25.1215 0.608 25.5115 0.716 25.7755 0.932C26.0515 1.148 26.1895 1.466 26.1895 1.886C26.1895 2.282 26.0515 2.588 25.7755 2.804C25.5115 3.02 25.1215 3.128 24.6055 3.128ZM28.2837 14V1.13H30.8397V14H28.2837ZM33.2232 14V1.13H35.7792V14H33.2232ZM41.9426 14.252C41.3066 14.252 40.7306 14.192 40.2146 14.072C39.6986 13.952 39.2546 13.778 38.8826 13.55C38.5106 13.322 38.2106 13.052 37.9826 12.74C37.7546 12.416 37.6046 12.056 37.5326 11.66L39.5126 10.85C39.5606 11.114 39.6926 11.36 39.9086 11.588C40.1246 11.816 40.4126 12.002 40.7726 12.146C41.1446 12.278 41.5886 12.344 42.1046 12.344C42.6566 12.344 43.0826 12.266 43.3826 12.11C43.6826 11.942 43.8326 11.708 43.8326 11.408C43.8326 11.18 43.7486 11 43.5806 10.868C43.4126 10.736 43.1666 10.622 42.8426 10.526C42.5186 10.43 42.1286 10.34 41.6726 10.256C41.2286 10.148 40.7726 10.034 40.3046 9.914C39.8486 9.794 39.4226 9.626 39.0266 9.41C38.6426 9.194 38.3246 8.912 38.0726 8.564C37.8326 8.204 37.7126 7.748 37.7126 7.196C37.7126 6.62 37.8686 6.116 38.1806 5.684C38.4926 5.252 38.9486 4.916 39.5486 4.676C40.1486 4.424 40.8806 4.298 41.7446 4.298C42.5246 4.298 43.2086 4.406 43.7966 4.622C44.3846 4.826 44.8646 5.126 45.2366 5.522C45.6206 5.906 45.8786 6.368 46.0106 6.908L43.9046 7.61C43.8566 7.322 43.7366 7.07 43.5446 6.854C43.3646 6.638 43.1186 6.476 42.8066 6.368C42.5066 6.26 42.1526 6.206 41.7446 6.206C41.2286 6.206 40.8266 6.29 40.5386 6.458C40.2626 6.626 40.1246 6.848 40.1246 7.124C40.1246 7.352 40.2146 7.538 40.3946 7.682C40.5866 7.826 40.8506 7.946 41.1866 8.042C41.5226 8.126 41.9186 8.216 42.3746 8.312C42.8546 8.408 43.3226 8.522 43.7786 8.654C44.2346 8.774 44.6426 8.936 45.0026 9.14C45.3746 9.344 45.6686 9.614 45.8846 9.95C46.1006 10.286 46.2086 10.718 46.2086 11.246C46.2086 11.87 46.0406 12.41 45.7046 12.866C45.3686 13.31 44.8826 13.652 44.2466 13.892C43.6106 14.132 42.8426 14.252 41.9426 14.252Z" fill="#F8F9FA"/>
</g>
</svg>
