<svg width="145" height="40" viewBox="0 0 145 40" fill="none" xmlns="http://www.w3.org/2000/svg">
<g clip-path="url(#clip0_2693_1119)">
<path d="M33.324 26V14.12H35.286V26H33.324ZM25.476 26V14.12H27.438V26H25.476ZM26.52 20.78V19.124H34.098V20.78H26.52ZM42.2161 26.234C41.4721 26.234 40.8121 26.126 40.2361 25.91C39.6601 25.682 39.1741 25.364 38.7781 24.956C38.3821 24.536 38.0821 24.038 37.8781 23.462C37.6741 22.874 37.5721 22.214 37.5721 21.482C37.5721 20.75 37.6741 20.078 37.8781 19.466C38.0821 18.842 38.3701 18.302 38.7421 17.846C39.1261 17.39 39.5941 17.036 40.1461 16.784C40.7101 16.532 41.3461 16.406 42.0541 16.406C42.7141 16.406 43.3021 16.514 43.8181 16.73C44.3461 16.946 44.7901 17.276 45.1501 17.72C45.5101 18.152 45.7801 18.698 45.9601 19.358C46.1401 20.006 46.2061 20.768 46.1581 21.644L38.8321 21.698V20.474L45.0061 20.42L44.3221 21.176C44.3941 20.456 44.3341 19.862 44.1421 19.394C43.9501 18.926 43.6741 18.578 43.3141 18.35C42.9541 18.122 42.5401 18.008 42.0721 18.008C41.5441 18.008 41.0821 18.146 40.6861 18.422C40.3021 18.686 40.0021 19.076 39.7861 19.592C39.5701 20.108 39.4621 20.726 39.4621 21.446C39.4621 22.526 39.7021 23.342 40.1821 23.894C40.6621 24.434 41.3461 24.704 42.2341 24.704C42.6061 24.704 42.9241 24.662 43.1881 24.578C43.4521 24.482 43.6741 24.362 43.8541 24.218C44.0341 24.062 44.1781 23.882 44.2861 23.678C44.4061 23.462 44.5021 23.24 44.5741 23.012L46.2841 23.408C46.1761 23.852 46.0081 24.248 45.7801 24.596C45.5641 24.932 45.2881 25.226 44.9521 25.478C44.6161 25.718 44.2201 25.904 43.7641 26.036C43.3201 26.168 42.8041 26.234 42.2161 26.234ZM48.3598 26V13.31H50.2858V26H48.3598ZM52.9828 26V13.31H54.9088V26H52.9828ZM61.6919 26.234C60.7919 26.234 59.9939 26.042 59.2979 25.658C58.6019 25.274 58.0559 24.716 57.6599 23.984C57.2759 23.252 57.0839 22.352 57.0839 21.284C57.0839 20.192 57.2879 19.286 57.6959 18.566C58.1039 17.846 58.6499 17.306 59.3339 16.946C60.0299 16.586 60.8099 16.406 61.6739 16.406C62.5619 16.406 63.3539 16.592 64.0499 16.964C64.7459 17.336 65.2919 17.888 65.6879 18.62C66.0959 19.352 66.2999 20.264 66.2999 21.356C66.2999 22.436 66.0959 23.342 65.6879 24.074C65.2919 24.794 64.7459 25.334 64.0499 25.694C63.3539 26.054 62.5679 26.234 61.6919 26.234ZM61.7639 24.686C62.3039 24.686 62.7659 24.56 63.1499 24.308C63.5339 24.056 63.8279 23.684 64.0319 23.192C64.2359 22.7 64.3379 22.112 64.3379 21.428C64.3379 20.72 64.2299 20.114 64.0139 19.61C63.7979 19.094 63.4859 18.698 63.0779 18.422C62.6819 18.146 62.1959 18.008 61.6199 18.008C61.1039 18.008 60.6479 18.134 60.2519 18.386C59.8679 18.626 59.5739 18.992 59.3699 19.484C59.1659 19.964 59.0639 20.552 59.0639 21.248C59.0639 22.34 59.3039 23.186 59.7839 23.786C60.2639 24.386 60.9239 24.686 61.7639 24.686ZM74.3748 26L71.9448 16.64H73.9608L75.6348 24.38H75.9408L77.7768 16.64H80.2248L82.0968 24.38H82.3848L84.0408 16.64H86.0388L83.5908 26H80.8728L79.0908 18.278H78.8568L77.0928 26H74.3748ZM91.8032 26.234C90.9032 26.234 90.1052 26.042 89.4092 25.658C88.7132 25.274 88.1672 24.716 87.7712 23.984C87.3872 23.252 87.1952 22.352 87.1952 21.284C87.1952 20.192 87.3992 19.286 87.8072 18.566C88.2152 17.846 88.7612 17.306 89.4452 16.946C90.1412 16.586 90.9212 16.406 91.7852 16.406C92.6732 16.406 93.4652 16.592 94.1612 16.964C94.8572 17.336 95.4032 17.888 95.7992 18.62C96.2072 19.352 96.4112 20.264 96.4112 21.356C96.4112 22.436 96.2072 23.342 95.7992 24.074C95.4032 24.794 94.8572 25.334 94.1612 25.694C93.4652 26.054 92.6792 26.234 91.8032 26.234ZM91.8752 24.686C92.4152 24.686 92.8772 24.56 93.2612 24.308C93.6452 24.056 93.9392 23.684 94.1432 23.192C94.3472 22.7 94.4492 22.112 94.4492 21.428C94.4492 20.72 94.3412 20.114 94.1252 19.61C93.9092 19.094 93.5972 18.698 93.1892 18.422C92.7932 18.146 92.3072 18.008 91.7312 18.008C91.2152 18.008 90.7592 18.134 90.3632 18.386C89.9792 18.626 89.6852 18.992 89.4812 19.484C89.2772 19.964 89.1752 20.552 89.1752 21.248C89.1752 22.34 89.4152 23.186 89.8952 23.786C90.3752 24.386 91.0352 24.686 91.8752 24.686ZM98.5805 26V21.122V16.64H100.272L100.182 19.88H100.488C100.596 19.148 100.764 18.524 100.992 18.008C101.22 17.492 101.532 17.102 101.928 16.838C102.324 16.562 102.816 16.424 103.404 16.424C103.524 16.424 103.656 16.43 103.8 16.442C103.944 16.454 104.106 16.49 104.286 16.55L104.196 18.602C104.016 18.53 103.83 18.482 103.638 18.458C103.446 18.422 103.272 18.404 103.116 18.404C102.636 18.404 102.228 18.542 101.892 18.818C101.556 19.082 101.274 19.454 101.046 19.934C100.83 20.402 100.662 20.948 100.542 21.572V26H98.5805ZM105.981 26V13.31H107.907V26H105.981ZM113.934 26.234C113.142 26.234 112.458 26.03 111.882 25.622C111.306 25.202 110.868 24.626 110.568 23.894C110.268 23.15 110.118 22.292 110.118 21.32C110.118 20.372 110.256 19.532 110.532 18.8C110.82 18.056 111.24 17.474 111.792 17.054C112.356 16.634 113.046 16.424 113.862 16.424C114.51 16.424 115.044 16.556 115.464 16.82C115.884 17.072 116.22 17.42 116.472 17.864C116.736 18.308 116.934 18.8 117.066 19.34H117.426C117.366 18.992 117.306 18.632 117.246 18.26C117.186 17.876 117.138 17.51 117.102 17.162C117.066 16.802 117.048 16.484 117.048 16.208V13.31H119.028V21.392V26H117.318L117.39 23.408H117.066C116.922 23.996 116.718 24.5 116.454 24.92C116.19 25.34 115.848 25.664 115.428 25.892C115.02 26.12 114.522 26.234 113.934 26.234ZM114.474 24.578C114.894 24.578 115.266 24.482 115.59 24.29C115.914 24.098 116.184 23.846 116.4 23.534C116.616 23.222 116.778 22.886 116.886 22.526C117.006 22.154 117.066 21.806 117.066 21.482V21.23C117.066 20.99 117.03 20.732 116.958 20.456C116.898 20.168 116.796 19.886 116.652 19.61C116.52 19.322 116.352 19.064 116.148 18.836C115.944 18.608 115.698 18.428 115.41 18.296C115.134 18.152 114.822 18.08 114.474 18.08C113.97 18.08 113.544 18.224 113.196 18.512C112.86 18.788 112.602 19.172 112.422 19.664C112.242 20.156 112.152 20.72 112.152 21.356C112.152 22.004 112.242 22.574 112.422 23.066C112.614 23.546 112.884 23.918 113.232 24.182C113.58 24.446 113.994 24.578 114.474 24.578Z" fill="#F8F9FA"/>
</g>
<rect x="0.5" y="0.5" width="144" height="39" rx="19.5" stroke="#F8F9FA"/>
<defs>
<clipPath id="clip0_2693_1119">
<rect width="145" height="40" rx="20" fill="white"/>
</clipPath>
</defs>
</svg>
