<svg width="85" height="14" viewBox="0 0 85 14" fill="none" xmlns="http://www.w3.org/2000/svg">
<g style="mix-blend-mode:difference">
<path d="M0.956813 13L5.02481 1.12H8.80481L12.8728 13H10.0648L7.05881 3.172H6.78881L3.76481 13H0.956813ZM3.24281 10.66V8.896H10.9648V10.66H3.24281ZM20.078 13.252C19.478 13.252 18.956 13.138 18.512 12.91C18.068 12.67 17.708 12.328 17.432 11.884C17.156 11.44 16.964 10.9 16.856 10.264H16.514L16.496 13H14.354V8.356V0.129999H16.946V3.226C16.946 3.514 16.928 3.826 16.892 4.162C16.856 4.486 16.802 4.822 16.73 5.17C16.67 5.518 16.604 5.878 16.532 6.25H16.928C17.084 5.65 17.294 5.134 17.558 4.702C17.834 4.258 18.182 3.922 18.602 3.694C19.022 3.454 19.52 3.334 20.096 3.334C20.888 3.334 21.572 3.538 22.148 3.946C22.724 4.354 23.168 4.93 23.48 5.674C23.804 6.418 23.966 7.3 23.966 8.32C23.966 9.316 23.81 10.186 23.498 10.93C23.186 11.662 22.736 12.232 22.148 12.64C21.572 13.048 20.882 13.252 20.078 13.252ZM19.16 11.128C19.592 11.128 19.964 11.014 20.276 10.786C20.588 10.546 20.828 10.21 20.996 9.778C21.164 9.346 21.248 8.842 21.248 8.266C21.248 7.69 21.164 7.192 20.996 6.772C20.84 6.352 20.612 6.022 20.312 5.782C20.012 5.542 19.646 5.422 19.214 5.422C18.926 5.422 18.662 5.476 18.422 5.584C18.182 5.692 17.972 5.842 17.792 6.034C17.612 6.214 17.456 6.424 17.324 6.664C17.192 6.892 17.096 7.132 17.036 7.384C16.976 7.636 16.946 7.876 16.946 8.104V8.446C16.946 8.722 16.988 9.022 17.072 9.346C17.156 9.658 17.288 9.952 17.468 10.228C17.66 10.492 17.894 10.708 18.17 10.876C18.446 11.044 18.776 11.128 19.16 11.128ZM30.1165 13.252C29.1685 13.252 28.3345 13.066 27.6145 12.694C26.8945 12.31 26.3305 11.752 25.9225 11.02C25.5145 10.276 25.3105 9.352 25.3105 8.248C25.3105 7.144 25.5145 6.226 25.9225 5.494C26.3425 4.762 26.9125 4.216 27.6325 3.856C28.3645 3.484 29.1925 3.298 30.1165 3.298C31.0645 3.298 31.8985 3.484 32.6185 3.856C33.3505 4.228 33.9205 4.786 34.3285 5.53C34.7485 6.262 34.9585 7.18 34.9585 8.284C34.9585 9.4 34.7425 10.33 34.3105 11.074C33.8905 11.806 33.3145 12.352 32.5825 12.712C31.8625 13.072 31.0405 13.252 30.1165 13.252ZM30.2065 11.326C30.6745 11.326 31.0645 11.218 31.3765 11.002C31.7005 10.786 31.9405 10.462 32.0965 10.03C32.2645 9.586 32.3485 9.052 32.3485 8.428C32.3485 7.768 32.2585 7.21 32.0785 6.754C31.9105 6.286 31.6585 5.932 31.3225 5.692C30.9865 5.44 30.5605 5.314 30.0445 5.314C29.6005 5.314 29.2165 5.422 28.8925 5.638C28.5685 5.842 28.3225 6.166 28.1545 6.61C27.9865 7.042 27.9025 7.576 27.9025 8.212C27.9025 9.232 28.1065 10.006 28.5145 10.534C28.9225 11.062 29.4865 11.326 30.2065 11.326ZM40.0053 13.252C38.9013 13.252 38.0673 12.88 37.5033 12.136C36.9513 11.38 36.6753 10.234 36.6753 8.698V3.55H39.2673V8.374C39.2673 9.298 39.4053 9.988 39.6813 10.444C39.9573 10.888 40.3773 11.11 40.9413 11.11C41.2773 11.11 41.5713 11.026 41.8233 10.858C42.0753 10.69 42.2913 10.456 42.4713 10.156C42.6513 9.856 42.7833 9.502 42.8673 9.094C42.9633 8.686 43.0173 8.248 43.0293 7.78V3.55H45.6213V9.148V13H43.5333L43.5153 10.048H43.1913C43.0113 10.792 42.7833 11.404 42.5073 11.884C42.2433 12.352 41.9013 12.7 41.4813 12.928C41.0733 13.144 40.5813 13.252 40.0053 13.252ZM51.5085 13.216C50.4525 13.216 49.6725 12.94 49.1685 12.388C48.6765 11.824 48.4305 10.93 48.4305 9.706V5.584H47.0625L47.0985 3.55H48.0525C48.4245 3.55 48.7005 3.496 48.8805 3.388C49.0605 3.28 49.1685 3.082 49.2045 2.794L49.4385 1.444H50.9145V3.55H53.3085V5.656H50.9145V9.598C50.9145 10.03 51.0165 10.342 51.2205 10.534C51.4245 10.726 51.7365 10.822 52.1565 10.822C52.3845 10.822 52.6005 10.798 52.8045 10.75C53.0205 10.702 53.2065 10.624 53.3625 10.516V12.928C52.9905 13.048 52.6485 13.126 52.3365 13.162C52.0245 13.198 51.7485 13.216 51.5085 13.216ZM59.3013 13V6.952V3.55H61.3713V6.376H61.7133C61.8813 5.68 62.1033 5.11 62.3793 4.666C62.6553 4.21 62.9853 3.868 63.3693 3.64C63.7653 3.412 64.2273 3.298 64.7553 3.298C65.3193 3.298 65.7873 3.424 66.1593 3.676C66.5313 3.928 66.8193 4.282 67.0233 4.738C67.2273 5.182 67.3593 5.728 67.4193 6.376H67.7073C67.8873 5.668 68.1273 5.086 68.4273 4.63C68.7393 4.174 69.1053 3.838 69.5253 3.622C69.9573 3.406 70.4313 3.298 70.9473 3.298C71.4633 3.298 71.9133 3.4 72.2973 3.604C72.6933 3.808 73.0233 4.114 73.2873 4.522C73.5513 4.918 73.7493 5.422 73.8813 6.034C74.0133 6.634 74.0793 7.33 74.0793 8.122V13H71.4873V8.446C71.4873 7.798 71.4333 7.258 71.3253 6.826C71.2173 6.382 71.0493 6.052 70.8213 5.836C70.5933 5.62 70.2993 5.512 69.9393 5.512C69.5433 5.512 69.2013 5.65 68.9133 5.926C68.6253 6.19 68.3973 6.556 68.2293 7.024C68.0613 7.492 67.9713 8.026 67.9593 8.626V13H65.4213V8.518C65.4213 7.846 65.3613 7.294 65.2413 6.862C65.1213 6.418 64.9473 6.082 64.7193 5.854C64.4913 5.626 64.2033 5.512 63.8553 5.512C63.4473 5.512 63.0993 5.65 62.8113 5.926C62.5233 6.19 62.3013 6.562 62.1453 7.042C61.9893 7.522 61.9053 8.056 61.8933 8.644V13H59.3013ZM80.7265 13.252C79.9465 13.252 79.2505 13.144 78.6385 12.928C78.0385 12.712 77.5285 12.4 77.1085 11.992C76.6885 11.584 76.3645 11.08 76.1365 10.48C75.9205 9.88 75.8125 9.202 75.8125 8.446C75.8125 7.702 75.9145 7.018 76.1185 6.394C76.3345 5.758 76.6465 5.212 77.0545 4.756C77.4625 4.288 77.9605 3.928 78.5485 3.676C79.1365 3.424 79.8025 3.298 80.5465 3.298C81.2665 3.298 81.9085 3.418 82.4725 3.658C83.0365 3.886 83.5045 4.234 83.8765 4.702C84.2605 5.17 84.5365 5.746 84.7045 6.43C84.8845 7.102 84.9505 7.876 84.9025 8.752L77.4865 8.824V7.402L83.4085 7.348L82.4905 8.068C82.5745 7.432 82.5325 6.91 82.3645 6.502C82.1965 6.094 81.9505 5.794 81.6265 5.602C81.3145 5.41 80.9665 5.314 80.5825 5.314C80.1265 5.314 79.7245 5.434 79.3765 5.674C79.0285 5.914 78.7585 6.268 78.5665 6.736C78.3745 7.192 78.2785 7.744 78.2785 8.392C78.2785 9.412 78.5005 10.162 78.9445 10.642C79.4005 11.122 79.9945 11.362 80.7265 11.362C81.0625 11.362 81.3445 11.32 81.5725 11.236C81.8125 11.14 82.0045 11.02 82.1485 10.876C82.3045 10.732 82.4245 10.57 82.5085 10.39C82.6045 10.21 82.6825 10.03 82.7425 9.85L84.9925 10.336C84.8845 10.78 84.7225 11.182 84.5065 11.542C84.3025 11.89 84.0265 12.196 83.6785 12.46C83.3305 12.712 82.9105 12.904 82.4185 13.036C81.9385 13.18 81.3745 13.252 80.7265 13.252Z" fill="#F8F9FA"/>
</g>
</svg>
